# xmcd
#
# Track frame offsets:
#	150
#	19282
#	37981
#	69199
#	92569
#	118041
#	137226
#	155565
#	182736
#	202009
#	217497
#
# Disc length: 3245 seconds
#
# Revision: 15
# Processed by: cddbd v1.5.2PL0 Copyright (c) Steve Scherf et al.
# Submitted via: Jack! The Knife 20 Magnifico
#
DISCID=a20cab0b
DTITLE=Dio - Strange Highways
DYEAR=1993
DGENRE=Metal
TTITLE0=Jesus, Mary and The Holy Ghost
TTITLE1=Firehead
TTITLE2=Strange Highways
TTITLE3=Hollywood Black
TTITLE4=Evilution
TTITLE5=Pain
TTITLE6=One Foot In The Grave
TTITLE7=Give Her The Gun
TTITLE8=Blood From A Stone
TTITLE9=Here's To You
TTITLE10=Bring Down The Rain
EXTD=Mike Fraser
EXTT0=Dio, Grijalva, Pilson
EXTT1=Appice, Dio, Grijalva, Pilson
EXTT2=Appice, Dio, Grijalva, Pilson
EXTT3=Dio, Grijalva, Pilson
EXTT4=Appice, Dio, Grijalva, Pilson
EXTT5=Dio, Grijalva, Pilson
EXTT6=Appice, Dio, Grijalva, Pilson
EXTT7=Dio, Grijalva, Pilson
EXTT8=Appice, Dio, Grijalva, Pilson
EXTT9=Appice, Dio, Grijalva, Pilson
EXTT10=Appice, Dio, Grijalva, Pilson
PLAYORDER=
